<?xml version="1.0" standalone="no"?>
<!DOCTYPE svg PUBLIC "-//W3C//DTD SVG 20010904//EN"
 "http://www.w3.org/TR/2001/REC-SVG-20010904/DTD/svg10.dtd">
<svg version="1.0" xmlns="http://www.w3.org/2000/svg"
 width="310.000000pt" height="63.000000pt" viewBox="0 0 310.000000 63.000000"
 preserveAspectRatio="xMidYMid meet">

<g transform="translate(0.000000,63.000000) scale(0.100000,-0.100000)"
fill="#000000" stroke="none">
<path d="M605 478 c-16 -13 -50 -68 -82 -134 -37 -78 -63 -120 -84 -135 -39
-28 -26 -41 37 -37 47 3 49 4 46 30 -5 47 13 68 59 68 38 0 39 -1 33 -27 -4
-16 -15 -35 -26 -43 -28 -23 -13 -30 68 -30 l73 0 -1 33 c0 17 12 74 27 125
32 104 28 137 -15 159 -40 20 -103 16 -135 -9z m52 -53 c3 -9 0 -36 -7 -60
-12 -42 -15 -45 -46 -45 -40 0 -41 7 -13 63 29 57 54 72 66 42z"/>
<path d="M1105 489 c-11 -5 -40 -37 -65 -71 l-44 -61 -14 34 c-8 18 -11 48 -9
66 l6 33 -85 0 c-79 0 -102 -9 -70 -27 7 -4 26 -42 40 -83 25 -67 26 -79 15
-117 -6 -24 -18 -48 -25 -54 -8 -6 -14 -18 -14 -25 0 -11 19 -14 79 -14 74 0
106 10 81 25 -28 17 -1 102 56 170 31 38 39 43 56 34 15 -8 25 -7 44 6 29 19
32 55 6 78 -21 19 -28 20 -57 6z"/>
<path d="M156 463 c5 -32 -60 -256 -76 -261 -5 -2 -10 -11 -10 -19 0 -13 17
-15 123 -11 129 4 161 14 204 60 32 34 53 91 53 143 0 95 -33 115 -189 115
l-110 0 5 -27z m179 -33 c8 -25 -10 -113 -33 -160 -17 -35 -65 -70 -78 -57 -8
8 5 67 38 175 16 53 22 62 43 62 15 0 26 -7 30 -20z"/>
<path d="M1200 475 c-10 -13 -10 -23 5 -55 22 -49 14 -82 -25 -110 -17 -12
-30 -30 -30 -42 0 -20 3 -21 91 -15 90 7 90 7 84 -16 -4 -12 -13 -27 -21 -33
-32 -26 -15 -35 63 -32 l77 3 0 40 c1 36 4 40 31 45 39 7 48 40 11 40 -14 0
-26 3 -26 6 0 3 10 39 22 81 24 84 20 93 -39 93 -43 0 -56 -16 -78 -96 -10
-38 -20 -72 -24 -75 -3 -4 -31 -9 -61 -12 -55 -6 -55 -6 -25 10 56 29 75 54
75 95 0 51 -35 88 -83 88 -19 0 -40 -7 -47 -15z"/>
<path d="M1683 419 c-35 -10 -40 -18 -22 -36 14 -14 -35 -174 -57 -186 -29
-17 -1 -27 73 -27 l75 0 -6 26 c-9 33 29 150 50 158 29 11 33 -4 13 -61 -23
-68 -24 -87 -3 -107 23 -23 89 -21 114 4 24 24 26 42 5 34 -19 -8 -19 -2 4 76
20 72 15 102 -19 120 -27 14 -73 5 -95 -20 -17 -19 -18 -19 -37 5 -20 26 -42
29 -95 14z"/>
<path d="M2064 416 c-70 -31 -107 -115 -80 -180 33 -80 173 -89 212 -15 l15
30 -50 -7 c-53 -7 -81 4 -81 32 0 10 14 14 50 14 72 0 110 22 110 63 0 17 -4
37 -8 43 -23 34 -111 45 -168 20z m70 -35 c9 -14 -10 -57 -28 -64 -23 -9 -26
4 -11 41 14 32 29 40 39 23z"/>
<path d="M2293 420 c-18 -8 -22 -15 -17 -38 3 -16 -1 -53 -10 -82 -21 -70 -20
-86 4 -110 25 -25 66 -26 106 -1 29 18 31 18 53 0 38 -31 108 -25 164 12 87
57 128 170 78 210 -28 23 -45 24 -65 3 -21 -20 -20 -63 0 -93 20 -28 8 -61
-30 -87 -47 -30 -57 -14 -35 58 10 35 19 73 19 85 0 33 -42 57 -85 49 -40 -8
-50 -19 -37 -43 12 -20 -24 -132 -45 -140 -24 -9 -25 4 -7 77 l19 72 -24 19
c-25 20 -53 23 -88 9z"/>
<path d="M2768 415 c-15 -9 -31 -27 -34 -40 -11 -45 3 -70 56 -99 52 -28 66
-59 31 -69 -22 -5 -35 2 -39 23 -6 27 -24 40 -53 40 -59 0 -58 -60 2 -84 87
-35 204 -10 224 47 13 38 0 56 -64 91 -56 30 -73 53 -50 67 22 13 27 11 41
-18 11 -22 20 -28 47 -28 48 0 63 27 33 57 -18 19 -35 23 -95 25 -51 2 -80 -1
-99 -12z"/>
</g>
</svg>
